<?xml version="1.0" encoding="UTF-8"?>
<svg xmlns="http://www.w3.org/2000/svg" height="300" width="400" viewBox="0 0 400 300">
  <!-- White background rectangle -->
  <rect x="0" y="0" width="400" height="300" fill="white" stroke="none"/>
  
  <!-- Forest green background rectangle behind ornament outline -->
  <rect x="85" y="3" width="230" height="294" fill="#228B22" stroke="none"/>
  
  <!-- Ornament diffuser design (scaled from 800x600 to 400x300) -->
  <g transform="scale(0.5)">
    <path d="M494.07 578.5L494.07 555.74Z"
    fill="none" stroke="black" stroke-width="2.0"/>
    <path d="M487.37 549.04L455.69 549.04"
    fill="none" stroke="black" stroke-width="2.0"/>
    <path d="M448.99 555.74L448.99 578.5Z"
    fill="none" stroke="black" stroke-width="2.0"/>
    <path d="M455.69 585.19L487.37 585.19"
    fill="none" stroke="black" stroke-width="2.0"/>
    <path d="M271.67 570.71L277.06 575.62"
    fill="none" stroke="black" stroke-width="2.0"/>
    <path d="M269.26 477.63L264.91 483.44"
    fill="none" stroke="black" stroke-width="2.0"/>
    <path d="M170.17 327.32L177.25 326.37"
    fill="none" stroke="black" stroke-width="2.0"/>
    <path d="M184.45 238.67L177.56 236.8"
    fill="none" stroke="black" stroke-width="2.0"/>
    <path d="M325.01 96.47L322.37 89.81"
    fill="none" stroke="black" stroke-width="2.0"/>
    <path d="M477.69 89.83L475.05 96.49"
    fill="none" stroke="black" stroke-width="2.0"/>
    <path d="M549.72 137.68L554.73 132.56"
    fill="none" stroke="black" stroke-width="2.0"/>
    <path d="M622.45 236.82L615.55 238.69"
    fill="none" stroke="black" stroke-width="2.0"/>
    <path d="M622.75 326.36L629.83 327.31"
    fill="none" stroke="black" stroke-width="2.0"/>
    <path d="M535.13 483.4L530.78 477.59"
    fill="none" stroke="black" stroke-width="2.0"/>
    <path d="M522.96 575.67L528.36 570.75"
    fill="none" stroke="black" stroke-width="2.0"/>
    <path d="M271.71 594.12L528.29 594.12"
    fill="none" stroke="black" stroke-width="2.0"/>
    <path d="M245.31 132.53L250.31 137.64"
    fill="none" stroke="black" stroke-width="2.0"/>
    <path d="M 494.07 555.74 A 6.694 6.694 0 0 0 487.37 549.04"
    fill="none" stroke="black" stroke-width="2.0"/>
    <path d="M 455.69 549.04 A 6.694 6.694 0 0 0 448.99 555.74"
    fill="none" stroke="black" stroke-width="2.0"/>
    <path d="M 448.99 578.5 A 6.694 6.694 0 0 0 455.69 585.19"
    fill="none" stroke="black" stroke-width="2.0"/>
    <path d="M 487.37 585.19 A 6.694 6.694 0 0 0 494.07 578.5"
    fill="none" stroke="black" stroke-width="2.0"/>
    <path d="M 277.53 574.8 A 6.694 6.694 0 0 0 277.06 575.62"
    fill="none" stroke="black" stroke-width="2.0"/>
    <path d="M 277.53 574.8 A 78.417 78.417 0 0 0 269.26 477.63"
    fill="none" stroke="black" stroke-width="2.0"/>
    <path d="M 184.45 238.67 A 212.712 212.712 0 0 0 177.25 326.37"
    fill="none" stroke="black" stroke-width="2.0"/>
    <path d="M 325.01 96.47 A 212.712 212.712 0 0 0 250.31 137.64"
    fill="none" stroke="black" stroke-width="2.0"/>
    <path d="M 338.83 85.34 A 219.852 219.852 0 0 0 322.37 89.81"
    fill="none" stroke="black" stroke-width="2.0"/>
    <path d="M 400 6.03 A 60.186 60.186 0 0 0 338.83 85.34"
    fill="none" stroke="black" stroke-width="2.0"/>
    <path d="M 461.17 85.34 A 60.186 60.186 0 0 0 400 6.03"
    fill="none" stroke="black" stroke-width="2.0"/>
    <path d="M 477.69 89.83 A 219.852 219.852 0 0 0 461.17 85.34"
    fill="none" stroke="black" stroke-width="2.0"/>
    <path d="M 549.72 137.68 A 212.712 212.712 0 0 0 475.05 96.49"
    fill="none" stroke="black" stroke-width="2.0"/>
    <path d="M 622.75 326.36 A 212.712 212.712 0 0 0 615.55 238.69"
    fill="none" stroke="black" stroke-width="2.0"/>
    <path d="M 530.78 477.59 A 78.417 78.417 0 0 0 522.47 574.8"
    fill="none" stroke="black" stroke-width="2.0"/>
    <path d="M 522.96 575.67 A 6.694 6.694 0 0 0 522.47 574.8"
    fill="none" stroke="black" stroke-width="2.0"/>
    <path d="M 528.29 594.12 A 8.926 8.926 0 0 0 534.92 579.21"
    fill="none" stroke="black" stroke-width="2.0"/>
    <path d="M 265.08 579.21 A 8.926 8.926 0 0 0 271.71 594.12"
    fill="none" stroke="black" stroke-width="2.0"/>
    <path d="M 544.69 474.65 A 71.277 71.277 0 0 0 535.13 483.4"
    fill="none" stroke="black" stroke-width="2.0"/>
    <path d="M 264.91 483.44 A 71.277 71.277 0 0 0 255.31 474.65"
    fill="none" stroke="black" stroke-width="2.0"/>
    <path d="M 622.45 236.82 A 219.852 219.852 0 0 0 554.73 132.56"
    fill="none" stroke="black" stroke-width="2.0"/>
    <path d="M 544.69 474.65 A 219.852 219.852 0 0 0 629.83 327.31"
    fill="none" stroke="black" stroke-width="2.0"/>
    <path d="M 245.31 132.53 A 219.852 219.852 0 0 0 177.56 236.8"
    fill="none" stroke="black" stroke-width="2.0"/>
    <path d="M 170.17 327.32 A 219.852 219.852 0 0 0 255.31 474.65"
    fill="none" stroke="black" stroke-width="2.0"/>
    <path d="M 528.36 570.75 A 71.277 71.277 0 0 0 534.92 579.21"
    fill="none" stroke="black" stroke-width="2.0"/>
    <path d="M 265.08 579.21 A 71.277 71.277 0 0 0 271.67 570.71"
    fill="none" stroke="black" stroke-width="2.0"/>
  </g>
  
  <!-- D9 NeoPixel Strip (12 LEDs) - Outer Ring -->
  <!-- Outer Ring (12 LEDs): D9 indices 0-11, counter-clockwise, uniform circle like Parol pattern -->
  <!-- Evenly spaced at 30° intervals, center at (200, 150), radius 101px -->
  <!-- Index 3 at top-left (105°), Index 2 at top-right (75°) -->
  <!-- Going counter-clockwise from index 3: 3, 2, 1, 0, 11, 10, 9, 8, 7, 6, 5, 4 -->
  <!-- Distinct colors for easy identification: Red, Orange, Yellow, Yellow-Green, Green, Cyan-Green, Cyan, Blue-Cyan, Blue, Purple, Magenta, Pink -->
  <circle cx="298" cy="124" r="6" fill="#333" stroke="#000" stroke-width="2.4" id="NEOPIXEL_0"/>
  <circle cx="271" cy="79" r="6" fill="#333" stroke="#000" stroke-width="2.4" id="NEOPIXEL_1"/>
  <circle cx="226" cy="52" r="6" fill="#333" stroke="#000" stroke-width="2.4" id="NEOPIXEL_2"/>
  <circle cx="174" cy="52" r="6" fill="#333" stroke="#000" stroke-width="2.4" id="NEOPIXEL_3"/>
  <circle cx="129" cy="79" r="6" fill="#333" stroke="#000" stroke-width="2.4" id="NEOPIXEL_4"/>
  <circle cx="102" cy="124" r="6" fill="#333" stroke="#000" stroke-width="2.4" id="NEOPIXEL_5"/>
  <circle cx="102" cy="176" r="6" fill="#333" stroke="#000" stroke-width="2.4" id="NEOPIXEL_6"/>
  <circle cx="129" cy="221" r="6" fill="#333" stroke="#000" stroke-width="2.4" id="NEOPIXEL_7"/>
  <circle cx="174" cy="248" r="6" fill="#333" stroke="#000" stroke-width="2.4" id="NEOPIXEL_8"/>
  <circle cx="226" cy="248" r="6" fill="#333" stroke="#000" stroke-width="2.4" id="NEOPIXEL_9"/>
  <circle cx="271" cy="221" r="6" fill="#333" stroke="#000" stroke-width="2.4" id="NEOPIXEL_10"/>
  <circle cx="298" cy="176" r="6" fill="#333" stroke="#000" stroke-width="2.4" id="NEOPIXEL_11"/>
  
  <!-- D7 NeoPixel Strip (14 LEDs) - Three Rows -->
  <!-- Top Row (5 LEDs): D7 indices [4,3,2,1,0] → Virtual [16,15,14,13,12] -->
  <!-- D7 NeoPixel Strip - Top Row (5 LEDs) -->
  <!-- Top Row: D7 indices [4,3,2,1,0] → virtual indices [16,15,14,13,12] -->
  <!-- Horizontal line, evenly spaced, rainbow gradient: Red, Orange, Yellow, Green, Cyan -->
  <!-- Positioned 45px above middle row (y=105), tight spacing (x: 150-250) to avoid outer ring LEDs -->
  <circle cx="150" cy="105" r="6" fill="#333" stroke="#000" stroke-width="2.4" id="NEOPIXEL_12"/>
  <circle cx="175" cy="105" r="6" fill="#333" stroke="#000" stroke-width="2.4" id="NEOPIXEL_13"/>
  <circle cx="200" cy="105" r="6" fill="#333" stroke="#000" stroke-width="2.4" id="NEOPIXEL_14"/>
  <circle cx="225" cy="105" r="6" fill="#333" stroke="#000" stroke-width="2.4" id="NEOPIXEL_15"/>
  <circle cx="250" cy="105" r="6" fill="#333" stroke="#000" stroke-width="2.4" id="NEOPIXEL_16"/>
  
  <!-- D7 NeoPixel Strip - Middle Row (4 LEDs) -->
  <!-- Middle Row: D7 indices [5,13,12,11] → virtual indices [17,25,24,23] -->
  <!-- Horizontal line, evenly spaced, rainbow gradient: Red, Orange, Yellow, Green -->
  <circle cx="140" cy="150" r="6" fill="#333" stroke="#000" stroke-width="2.4" id="NEOPIXEL_17"/>
  <circle cx="180" cy="150" r="6" fill="#333" stroke="#000" stroke-width="2.4" id="NEOPIXEL_25"/>
  <circle cx="220" cy="150" r="6" fill="#333" stroke="#000" stroke-width="2.4" id="NEOPIXEL_24"/>
  <circle cx="260" cy="150" r="6" fill="#333" stroke="#000" stroke-width="2.4" id="NEOPIXEL_23"/>
  
  <!-- D7 NeoPixel Strip - Bottom Row (5 LEDs) -->
  <!-- Bottom Row: D7 indices [6,7,8,9,10] → virtual indices [18,19,20,21,22] -->
  <!-- Horizontal line, evenly spaced, rainbow gradient: Red, Orange, Yellow, Green, Cyan -->
  <!-- Positioned 45px below middle row (y=195), tight spacing (x: 150-250) to avoid outer ring LEDs -->
  <circle cx="150" cy="195" r="6" fill="#333" stroke="#000" stroke-width="2.4" id="NEOPIXEL_18"/>
  <circle cx="175" cy="195" r="6" fill="#333" stroke="#000" stroke-width="2.4" id="NEOPIXEL_19"/>
  <circle cx="200" cy="195" r="6" fill="#333" stroke="#000" stroke-width="2.4" id="NEOPIXEL_20"/>
  <circle cx="225" cy="195" r="6" fill="#333" stroke="#000" stroke-width="2.4" id="NEOPIXEL_21"/>
  <circle cx="250" cy="195" r="6" fill="#333" stroke="#000" stroke-width="2.4" id="NEOPIXEL_22"/>
  
  <!-- Motion sensor button at bottom of ornament -->
  <rect x="222.5" y="272.5" width="25" height="25" fill="#ccc" stroke="#000" stroke-width="1" rx="2"/>
  <text x="235" y="289" text-anchor="middle" font-family="Arial" font-size="10" fill="#000">D2</text>
</svg>
