<?xml version="1.0" encoding="UTF-8"?>
<svg xmlns="http://www.w3.org/2000/svg" height="300" width="400" viewBox="0 0 400 300">
  <!-- Brown background rectangle behind Kinara outline -->
  <rect x="25" y="0" width="350" height="310" fill="#7B3C1B" stroke="none"/>
  
  <!-- Kinara board outline (stroke only, on top of brown background) -->
  <g transform="translate(200, 140) scale(1.15) translate(-200, -140) translate(0, 15)">
      <path d="M 115.87 35.353 C 115.87 35.118 115.679 34.927 115.444 34.927 L 162.27 34.927 C 162.035 34.927 161.844 35.118 161.844 35.353 C 161.844 35.588 162.035 35.779 162.27 35.779 L 115.444 35.779 C 115.679 35.779 115.87 35.588 115.87 35.353 Z M 115.87 31.72 C 115.87 31.955 115.679 32.146 115.444 32.146 L 108.546 32.146 C 108.311 32.146 108.12 31.955 108.12 31.72 C 108.12 31.485 108.311 31.294 108.546 31.294 L 108.553 31.294 C 108.698 31.297 108.834 31.375 108.909 31.5 C 108.988 31.63 108.991 31.793 108.917 31.926 C 108.844 32.059 108.705 32.143 108.552 32.146 C 108.552 32.146 108.551 32.146 108.552 32.146 C 108.552 32.146 108.055 32.148 107.809 32.151 C 107.563 32.154 107.319 32.158 107.073 32.165 C 106.583 32.177 106.096 32.196 105.609 32.22 C 104.634 32.27 103.671 32.343 102.709 32.441 C 100.786 32.637 98.902 32.926 97.04 33.307 C 93.316 34.07 89.744 35.188 86.321 36.637 C 79.475 39.534 73.343 43.703 68.163 48.883 C 57.801 59.245 51.407 73.471 51.426 89.266 C 51.426 89.501 51.235 89.692 51 89.692 C 50.765 89.692 50.574 89.501 50.574 89.266 C 50.593 73.297 57.091 58.75 67.561 48.28 C 72.797 43.044 79.067 38.782 85.989 35.852 C 89.45 34.388 93.103 33.244 96.869 32.473 C 98.752 32.087 100.679 31.791 102.623 31.593 C 103.595 31.495 104.58 31.42 105.566 31.369 C 106.059 31.344 106.556 31.326 107.052 31.313 C 107.548 31.3 108.536 31.294 108.536 31.294 C 108.539 31.294 108.536 31.294 108.536 31.294 C 108.542 31.294 108.547 31.294 108.553 31.294 L 115.444 31.294 C 115.679 31.294 115.87 31.485 115.87 31.72 Z M 162.27 32.146 C 162.035 32.146 161.844 31.955 161.844 31.72 C 161.844 31.485 162.035 31.294 162.27 31.294 C 162.273 31.294 169.172 31.294 169.175 31.294 C 169.354 31.29 170.061 31.273 170.424 31.244 C 170.841 31.211 171.245 31.163 171.653 31.097 C 172.468 30.967 173.245 30.778 174.014 30.528 C 175.55 30.028 176.954 29.312 178.244 28.392 C 180.803 26.565 182.763 24.05 183.858 21.05 C 183.863 21.025 183.869 21.001 183.878 20.977 C 185.083 17.687 187.291 14.807 190.094 12.807 C 192.896 10.808 196.393 9.62 200.099 9.608 L 200.101 9.608 C 203.807 9.62 207.304 10.808 210.106 12.807 C 211.508 13.807 212.777 15.036 213.821 16.404 C 214.343 17.087 214.824 17.825 215.24 18.585 C 215.448 18.964 215.646 19.36 215.826 19.756 C 216.005 20.153 216.31 20.946 216.31 20.946 C 216.324 20.977 216.334 21.01 216.34 21.042 C 216.425 21.259 216.637 21.799 216.767 22.085 C 216.932 22.45 217.107 22.799 217.298 23.148 C 217.681 23.846 218.106 24.499 218.586 25.127 C 219.546 26.385 220.668 27.472 221.957 28.392 C 224.536 30.232 227.624 31.305 231.028 31.294 C 231.03 31.294 231.031 31.294 231.032 31.294 L 237.93 31.294 C 238.165 31.294 238.356 31.485 238.356 31.72 C 238.356 31.955 238.165 32.146 237.93 32.146 C 237.929 32.146 231.029 32.146 231.028 32.146 C 227.486 32.133 224.14 30.997 221.462 29.086 C 220.121 28.129 218.907 26.953 217.908 25.644 C 217.409 24.99 216.949 24.284 216.551 23.558 C 216.352 23.195 216.163 22.816 215.991 22.437 C 215.819 22.058 215.528 21.3 215.528 21.3 C 215.514 21.269 215.504 21.237 215.498 21.204 C 215.41 20.98 215.186 20.41 215.049 20.108 C 214.877 19.726 214.693 19.36 214.493 18.994 C 214.092 18.263 213.647 17.579 213.144 16.921 C 212.138 15.603 210.962 14.464 209.611 13.5 C 206.908 11.572 203.668 10.448 200.101 10.46 L 200.099 10.46 C 196.532 10.448 193.292 11.572 190.589 13.5 C 187.906 15.414 185.851 18.053 184.704 21.196 C 184.699 21.221 184.693 21.245 184.684 21.269 C 183.532 24.416 181.419 27.173 178.738 29.086 C 177.398 30.042 175.877 30.817 174.278 31.338 C 173.478 31.599 172.635 31.803 171.787 31.939 C 171.363 32.007 170.925 32.059 170.491 32.094 C 170.057 32.128 169.201 32.145 169.201 32.145 C 169.192 32.145 169.201 32.145 169.201 32.145 C 169.185 32.146 169.168 32.147 169.152 32.146 L 162.27 32.146 Z M 238.356 35.353 C 238.356 35.118 238.165 34.927 237.93 34.927 L 284.756 34.927 C 284.521 34.927 284.33 35.118 284.33 35.353 C 284.33 35.588 284.521 35.779 284.756 35.779 L 237.93 35.779 C 238.165 35.779 238.356 35.588 238.356 35.353 Z M 284.754 32.146 C 284.519 32.146 284.328 31.955 284.328 31.72 C 284.328 31.485 284.519 31.294 284.754 31.294 C 284.754 31.294 291.652 31.294 291.653 31.294 C 307.622 31.313 322.169 37.811 332.639 48.28 C 337.876 53.516 342.138 59.786 345.067 66.708 C 346.532 70.169 347.676 73.822 348.447 77.588 C 348.833 79.471 349.129 81.398 349.327 83.342 C 349.425 84.314 349.5 85.299 349.551 86.285 C 349.576 86.778 349.594 87.275 349.607 87.771 C 349.62 88.267 349.626 89.255 349.626 89.255 C 349.626 89.258 349.626 89.255 349.626 89.255 C 349.629 89.407 349.55 89.55 349.42 89.628 C 349.29 89.707 349.127 89.71 348.994 89.636 C 348.861 89.563 348.777 89.424 348.774 89.271 C 348.774 89.271 348.774 89.27 348.774 89.271 C 348.774 89.271 348.772 88.774 348.769 88.528 C 348.766 88.282 348.762 88.038 348.755 87.792 C 348.743 87.302 348.724 86.815 348.7 86.328 C 348.65 85.353 348.577 84.39 348.479 83.428 C 348.283 81.505 347.994 79.621 347.613 77.759 C 346.85 74.035 345.731 70.463 344.283 67.04 C 341.386 60.194 337.217 54.063 332.037 48.883 C 321.674 38.52 307.448 32.127 291.653 32.146 C 291.653 32.146 291.653 32.146 291.652 32.146 L 284.754 32.146 Z M 345.141 94.285 C 345.141 94.05 345.332 93.859 345.567 93.859 L 349.2 93.859 C 349.435 93.859 349.626 94.05 349.626 94.285 C 349.626 94.52 349.435 94.711 349.2 94.711 L 345.994 94.711 L 345.994 141.11 C 345.994 141.345 345.803 141.536 345.568 141.536 C 345.333 141.536 345.142 141.345 345.142 141.11 L 345.142 94.314 C 345.141 94.305 345.141 94.295 345.141 94.285 Z M 332.381 182.528 C 332.381 182.528 333.013 181.96 333.32 181.673 C 333.628 181.386 333.929 181.097 334.229 180.802 C 334.829 180.212 335.41 179.611 335.978 178.992 C 337.116 177.752 338.183 176.462 339.189 175.11 C 341.2 172.405 342.927 169.504 344.35 166.41 C 347.197 160.221 348.779 153.381 348.774 146.128 C 348.774 145.893 348.965 145.702 349.2 145.702 C 349.435 145.702 349.626 145.893 349.626 146.128 C 349.621 153.477 348.007 160.498 345.124 166.766 C 343.682 169.901 341.91 172.879 339.872 175.618 C 338.854 176.988 337.758 178.312 336.606 179.568 C 336.03 180.195 335.434 180.812 334.827 181.41 C 334.523 181.708 334.213 182.005 333.902 182.296 C 333.648 182.533 333.182 182.953 333.02 183.098 C 333.003 183.121 332.983 183.143 332.961 183.163 L 319.483 195.106 C 319.476 195.114 319.469 195.122 319.461 195.129 C 319.461 195.129 319.457 195.133 319.461 195.129 C 319.461 195.129 318.902 195.638 318.638 195.897 C 318.375 196.156 318.121 196.418 317.871 196.691 C 317.371 197.235 316.906 197.798 316.464 198.392 C 315.58 199.581 314.828 200.845 314.202 202.205 C 312.95 204.926 312.263 207.906 312.263 211.094 C 312.263 216.28 314.074 220.973 317.155 224.677 C 317.305 224.859 317.28 225.127 317.099 225.277 C 316.918 225.427 316.649 225.402 316.499 225.221 C 313.348 221.399 311.411 216.434 311.411 211.094 C 311.411 207.811 312.14 204.649 313.428 201.849 C 314.072 200.448 314.87 199.108 315.781 197.884 C 316.236 197.272 316.729 196.675 317.244 196.114 C 317.501 195.834 317.769 195.556 318.041 195.289 C 318.273 195.061 318.711 194.66 318.832 194.55 C 318.845 194.534 318.86 194.518 318.876 194.504 L 332.335 182.578 C 332.349 182.56 332.364 182.544 332.381 182.528 C 332.381 182.528 332.383 182.526 332.381 182.528 Z M 337.685 255.871 C 337.503 256.021 337.235 255.996 337.085 255.815 L 314.347 228.324 C 314.197 228.142 314.222 227.874 314.403 227.724 C 314.585 227.574 314.853 227.599 315.003 227.78 L 337.741 255.271 C 337.891 255.453 337.866 255.721 337.685 255.871 Z M 344.806 263.263 C 344.762 263.037 344.714 262.816 344.662 262.593 C 344.558 262.148 344.441 261.715 344.308 261.281 C 344.042 260.413 343.725 259.583 343.351 258.769 C 342.604 257.14 341.664 255.649 340.532 254.286 C 340.382 254.105 340.407 253.836 340.588 253.686 C 340.769 253.536 341.038 253.561 341.188 253.742 C 342.352 255.15 343.354 256.733 344.126 258.413 C 344.511 259.253 344.849 260.136 345.123 261.032 C 345.26 261.479 345.384 261.94 345.491 262.4 C 345.599 262.859 345.764 263.774 345.764 263.774 C 345.773 263.815 345.775 263.856 345.772 263.896 C 345.759 264.12 345.574 264.297 345.347 264.297 L 290.424 264.297 C 290.189 264.297 289.998 264.106 289.998 263.871 C 289.998 263.636 290.189 263.445 290.424 263.445 L 344.841 263.445 C 344.828 263.377 344.816 263.314 344.806 263.263 Z M 243.172 260.238 C 243.172 260.003 243.363 259.812 243.598 259.812 L 290.424 259.812 C 290.659 259.812 290.85 260.003 290.85 260.238 C 290.85 260.473 290.659 260.664 290.424 260.664 L 243.598 260.664 C 243.363 260.664 243.172 260.473 243.172 260.238 Z M 243.172 263.872 C 243.172 264.107 243.363 264.298 243.598 264.298 L 156.601 264.298 C 156.836 264.298 157.027 264.107 157.027 263.872 C 157.027 263.637 156.836 263.446 156.601 263.446 L 243.598 263.446 C 243.363 263.446 243.172 263.637 243.172 263.872 Z M 109.35 260.238 C 109.35 260.003 109.541 259.812 109.776 259.812 L 156.602 259.812 C 156.837 259.812 157.028 260.003 157.028 260.238 C 157.028 260.473 156.837 260.664 156.602 260.664 L 109.776 260.664 C 109.541 260.664 109.35 260.473 109.35 260.238 Z M 109.776 263.445 C 110.011 263.445 110.202 263.636 110.202 263.871 C 110.202 264.106 110.011 264.297 109.776 264.297 L 54.854 264.297 C 54.804 264.297 54.756 264.288 54.711 264.272 C 54.519 264.206 54.397 264.009 54.431 263.801 C 54.74 261.919 55.303 260.093 56.074 258.414 C 56.46 257.574 56.906 256.751 57.395 255.975 C 57.639 255.587 57.899 255.202 58.168 254.831 C 58.436 254.461 58.995 253.764 58.995 253.764 C 58.999 253.759 58.995 253.764 58.995 253.764 C 59.133 253.574 59.399 253.531 59.59 253.669 C 59.78 253.807 59.823 254.073 59.685 254.264 C 59.685 254.264 59.118 254.972 58.858 255.331 C 58.597 255.691 58.352 256.053 58.116 256.429 C 57.642 257.182 57.222 257.955 56.848 258.769 C 56.168 260.25 55.665 261.803 55.357 263.445 L 109.776 263.445 Z M 85.797 227.724 C 85.978 227.874 86.003 228.142 85.853 228.324 L 63.115 255.815 C 62.965 255.996 62.697 256.021 62.515 255.871 C 62.334 255.721 62.309 255.453 62.459 255.271 L 85.197 227.78 C 85.347 227.599 85.615 227.574 85.797 227.724 Z M 83.034 224.691 C 83.034 224.691 83.421 224.213 83.603 223.973 C 83.786 223.734 83.96 223.493 84.132 223.246 C 84.477 222.751 84.796 222.248 85.098 221.724 C 85.703 220.675 86.214 219.587 86.637 218.437 C 87.482 216.135 87.937 213.687 87.937 211.094 C 87.937 204.716 85.197 199.062 80.755 195.144 C 80.741 195.132 80.728 195.119 80.716 195.105 L 67.239 183.163 C 67.218 183.144 67.199 183.124 67.183 183.103 C 62.114 178.586 57.948 173.011 55.076 166.766 C 53.634 163.632 52.504 160.299 51.741 156.852 C 51.36 155.129 51.067 153.361 50.871 151.576 C 50.773 150.683 50.699 149.777 50.649 148.871 C 50.624 148.418 50.605 147.96 50.593 147.504 C 50.58 147.048 50.574 146.14 50.574 146.14 C 50.574 146.137 50.574 146.14 50.574 146.14 C 50.568 145.904 50.753 145.709 50.988 145.702 C 51.224 145.696 51.419 145.881 51.426 146.116 C 51.426 146.116 51.426 146.119 51.426 146.116 C 51.426 146.116 51.432 147.03 51.444 147.481 C 51.457 147.931 51.475 148.377 51.5 148.825 C 51.549 149.719 51.621 150.602 51.718 151.483 C 51.911 153.245 52.197 154.967 52.573 156.668 C 53.326 160.069 54.427 163.316 55.85 166.41 C 58.696 172.599 62.772 178.058 67.811 182.52 C 67.832 182.538 67.85 182.558 67.866 182.579 L 81.324 194.504 C 81.338 194.517 81.352 194.53 81.364 194.544 C 85.881 198.594 88.789 204.551 88.789 211.094 C 88.789 213.764 88.307 216.362 87.436 218.731 C 87.001 219.916 86.459 221.07 85.836 222.15 C 85.525 222.69 85.186 223.223 84.832 223.732 C 84.477 224.242 83.723 225.192 83.723 225.192 C 83.717 225.199 83.723 225.192 83.723 225.192 C 83.633 225.315 83.485 225.381 83.334 225.365 C 83.182 225.349 83.051 225.254 82.989 225.115 C 82.927 224.976 82.944 224.814 83.034 224.691 C 83.034 224.691 83.037 224.688 83.034 224.691 Z M 54.633 93.859 C 54.868 93.859 55.059 94.05 55.059 94.285 L 55.059 141.11 C 55.059 141.345 54.868 141.536 54.633 141.536 C 54.398 141.536 54.207 141.345 54.207 141.11 L 54.207 94.285 C 54.207 94.05 54.398 93.859 54.633 93.859 Z" fill="none" stroke="#000000" stroke-width="2.4" stroke-linejoin="round" stroke-linecap="round"/>
      <!-- Small square at bottom of Kinara -->
      <path style="stroke: rgb(0, 0, 0); stroke-width: 0.852; stroke-linejoin: round; stroke-linecap: round; fill: none;" d="M 191.052 246.768 L 209.114 246.768"/>
      <path style="stroke: rgb(0, 0, 0); stroke-width: 0.852; stroke-linejoin: round; stroke-linecap: round; fill: none;" d="M 191.052 233.166 L 191.052 246.768"/>
      <path style="stroke: rgb(0, 0, 0); stroke-width: 0.852; stroke-linejoin: round; stroke-linecap: round; fill: none;" d="M 209.113 233.165 L 191.052 233.166"/>
      <path style="stroke: rgb(0, 0, 0); stroke-width: 0.852; stroke-linejoin: round; stroke-linecap: round; fill: none;" d="M 209.113 246.768 L 209.113 233.166"/>
  </g>
  
  
  <!-- D9 NeoPixel Strip (14 LEDs) -->
  <!-- Row 1: 7 LEDs (D9_0 to D9_6) -->
  <circle cx="80" cy="60" r="6" fill="#333" stroke="#000" stroke-width="0.5" id="NEOPIXEL_D9_0"/>
  <circle cx="120" cy="60" r="6" fill="#333" stroke="#000" stroke-width="0.5" id="NEOPIXEL_D9_1"/>
  <circle cx="160" cy="60" r="6" fill="#333" stroke="#000" stroke-width="0.5" id="NEOPIXEL_D9_2"/>
  <circle cx="200" cy="60" r="6" fill="#333" stroke="#000" stroke-width="0.5" id="NEOPIXEL_D9_3"/>
  <circle cx="240" cy="60" r="6" fill="#333" stroke="#000" stroke-width="0.5" id="NEOPIXEL_D9_4"/>
  <circle cx="280" cy="60" r="6" fill="#333" stroke="#000" stroke-width="0.5" id="NEOPIXEL_D9_5"/>
  <circle cx="320" cy="60" r="6" fill="#333" stroke="#000" stroke-width="0.5" id="NEOPIXEL_D9_6"/>
  
  <!-- Row 2: 7 LEDs (D9_7 to D9_13) -->
  <circle cx="80" cy="100" r="6" fill="#333" stroke="#000" stroke-width="0.5" id="NEOPIXEL_D9_7"/>
  <circle cx="120" cy="100" r="6" fill="#333" stroke="#000" stroke-width="0.5" id="NEOPIXEL_D9_8"/>
  <circle cx="160" cy="100" r="6" fill="#333" stroke="#000" stroke-width="0.5" id="NEOPIXEL_D9_9"/>
  <circle cx="200" cy="100" r="6" fill="#333" stroke="#000" stroke-width="0.5" id="NEOPIXEL_D9_10"/>
  <circle cx="240" cy="100" r="6" fill="#333" stroke="#000" stroke-width="0.5" id="NEOPIXEL_D9_11"/>
  <circle cx="280" cy="100" r="6" fill="#333" stroke="#000" stroke-width="0.5" id="NEOPIXEL_D9_12"/>
  <circle cx="320" cy="100" r="6" fill="#333" stroke="#000" stroke-width="0.5" id="NEOPIXEL_D9_13"/>
  
  <!-- D7 NeoPixel Strip (11 LEDs) -->
  <!-- Row 3: 6 LEDs (D7_0 to D7_5) -->
  <circle cx="80" cy="140" r="6" fill="#333" stroke="#000" stroke-width="0.5" id="NEOPIXEL_D7_0"/>
  <circle cx="120" cy="140" r="6" fill="#333" stroke="#000" stroke-width="0.5" id="NEOPIXEL_D7_1"/>
  <circle cx="160" cy="140" r="6" fill="#333" stroke="#000" stroke-width="0.5" id="NEOPIXEL_D7_2"/>
  <circle cx="200" cy="140" r="6" fill="#333" stroke="#000" stroke-width="0.5" id="NEOPIXEL_D7_3"/>
  <circle cx="240" cy="140" r="6" fill="#333" stroke="#000" stroke-width="0.5" id="NEOPIXEL_D7_4"/>
  <circle cx="280" cy="140" r="6" fill="#333" stroke="#000" stroke-width="0.5" id="NEOPIXEL_D7_5"/>
  <circle cx="320" cy="140" r="6" fill="#333" stroke="#000" stroke-width="0.5" id="NEOPIXEL_D7_6"/>
  
  <!-- Row 4: 4 LEDs (D7_7 to D7_10) -->
  <circle cx="140" cy="180" r="6" fill="#333" stroke="#000" stroke-width="0.5" id="NEOPIXEL_D7_7"/>
  <circle cx="180" cy="180" r="6" fill="#333" stroke="#000" stroke-width="0.5" id="NEOPIXEL_D7_8"/>
  <circle cx="220" cy="180" r="6" fill="#333" stroke="#000" stroke-width="0.5" id="NEOPIXEL_D7_9"/>
  <circle cx="260" cy="180" r="6" fill="#333" stroke="#000" stroke-width="0.5" id="NEOPIXEL_D7_10"/>
  
  <!-- Labels -->
  <text x="60" y="80" font-family="Arial" font-size="12" font-weight="bold">D9</text>
  <text x="60" y="160" font-family="Arial" font-size="12" font-weight="bold">D7</text>
</svg>